<svg xmlns="http://www.w3.org/2000/svg" viewBox="0 0 128 128" role="img" aria-label="Tooth">
  <defs>
    <linearGradient id="g" x1="0" x2="0" y1="0" y2="1">
      <stop offset="0" stop-color="#24b6a6"/>
      <stop offset="1" stop-color="#1a8a7d"/>
    </linearGradient>
  </defs>
  <!-- Stylized tooth silhouette -->
  <path fill="url(#g)" d="M64 10c-9.8 0-17.4 3.5-23.4 9.4C34.6 25.4 32 33.3 32 42c0 6.3 1.5 12.3 3.7 17.1 2.6 5.7 3.9 12.2 3.9 18.7 0 10.5 4.6 20.2 10.6 20.2 6.2 0 8.1-6.6 10.3-12.9 1.6-4.6 3.8-7.1 6.6-7.1s5 2.5 6.6 7.1c2.2 6.3 4.1 12.9 10.3 12.9 6 0 10.6-9.7 10.6-20.2 0-6.5 1.4-13 3.9-18.7 2.2-4.8 3.7-10.8 3.7-17.1 0-8.7-2.6-16.6-8.6-22.6C81.4 13.5 73.8 10 64 10z"/>
  <!-- Subtle inner highlight -->
  <path fill="rgba(255,255,255,0.25)" d="M48 24c-7 5-10 12.3-10 20 0 3.7.7 7.7 2.1 11.1C42.6 60.4 44 65.8 44 71c0 5.6 1.6 10.6 4.4 13.9 2.3-1.6 3.7-4.5 5-8.1 2.4-6.9 6.3-11.8 12.6-11.8 6.2 0 10.2 4.9 12.6 11.8 1.3 3.6 2.7 6.5 5 8.1 2.8-3.3 4.4-8.3 4.4-13.9 0-5.2 1.4-10.6 3.9-15.9 1.4-3.4 2.1-7.4 2.1-11.1 0-7.7-3-15-10-20-7.2-5.1-16.1-7-24.6-5.7C60 18.2 53.6 20.8 48 24z"/>
</svg>
